<mxfile host="app.diagrams.net" modified="2022-04-15T04:54:58.392Z" agent="5.0 (Macintosh; Intel Mac OS X 10_15_7) AppleWebKit/537.36 (KHTML, like Gecko) Chrome/100.0.4896.88 Safari/537.36" etag="qF1ztCCoybZe-iJv3yfe" version="17.4.4" type="github">
  <diagram id="Kc_5fzsNJj1rrljEpmhN" name="Page-1">
    <mxGraphModel dx="1934" dy="1129" grid="1" gridSize="10" guides="1" tooltips="1" connect="1" arrows="1" fold="1" page="1" pageScale="1" pageWidth="850" pageHeight="1100" math="0" shadow="0">
      <root>
        <mxCell id="0" />
        <mxCell id="1" parent="0" />
        <mxCell id="qmVG4XL9D6MHdwjUhQzo-19" value="" style="rounded=1;whiteSpace=wrap;html=1;" vertex="1" parent="1">
          <mxGeometry x="35.4" y="485" width="474.6" height="130" as="geometry" />
        </mxCell>
        <mxCell id="qmVG4XL9D6MHdwjUhQzo-8" style="edgeStyle=orthogonalEdgeStyle;rounded=0;orthogonalLoop=1;jettySize=auto;html=1;entryX=0.5;entryY=0;entryDx=0;entryDy=0;entryPerimeter=0;" edge="1" parent="1" source="qmVG4XL9D6MHdwjUhQzo-1" target="qmVG4XL9D6MHdwjUhQzo-2">
          <mxGeometry relative="1" as="geometry" />
        </mxCell>
        <mxCell id="qmVG4XL9D6MHdwjUhQzo-30" value="HTTP" style="edgeLabel;html=1;align=center;verticalAlign=middle;resizable=0;points=[];" vertex="1" connectable="0" parent="qmVG4XL9D6MHdwjUhQzo-8">
          <mxGeometry x="-0.0472" y="-2" relative="1" as="geometry">
            <mxPoint as="offset" />
          </mxGeometry>
        </mxCell>
        <mxCell id="qmVG4XL9D6MHdwjUhQzo-25" style="edgeStyle=orthogonalEdgeStyle;rounded=0;orthogonalLoop=1;jettySize=auto;html=1;entryX=0.5;entryY=0;entryDx=0;entryDy=0;" edge="1" parent="1" source="qmVG4XL9D6MHdwjUhQzo-1" target="qmVG4XL9D6MHdwjUhQzo-13">
          <mxGeometry relative="1" as="geometry" />
        </mxCell>
        <mxCell id="qmVG4XL9D6MHdwjUhQzo-31" value="Websocket" style="edgeLabel;html=1;align=center;verticalAlign=middle;resizable=0;points=[];" vertex="1" connectable="0" parent="qmVG4XL9D6MHdwjUhQzo-25">
          <mxGeometry x="-0.4408" y="4" relative="1" as="geometry">
            <mxPoint as="offset" />
          </mxGeometry>
        </mxCell>
        <mxCell id="qmVG4XL9D6MHdwjUhQzo-1" value="" style="shape=mxgraph.cisco.computers_and_peripherals.web_browser;html=1;pointerEvents=1;dashed=0;fillColor=#036897;strokeColor=#ffffff;strokeWidth=2;verticalLabelPosition=bottom;verticalAlign=top;align=center;outlineConnect=0;" vertex="1" parent="1">
          <mxGeometry x="330" y="70" width="62" height="64" as="geometry" />
        </mxCell>
        <mxCell id="qmVG4XL9D6MHdwjUhQzo-2" value="" style="verticalLabelPosition=bottom;html=1;verticalAlign=top;align=center;strokeColor=none;fillColor=#00BEF2;shape=mxgraph.azure.load_balancer_generic;pointerEvents=1;" vertex="1" parent="1">
          <mxGeometry x="170" y="200" width="50" height="60" as="geometry" />
        </mxCell>
        <mxCell id="qmVG4XL9D6MHdwjUhQzo-3" value="" style="aspect=fixed;perimeter=ellipsePerimeter;html=1;align=center;shadow=0;dashed=0;spacingTop=3;image;image=img/lib/active_directory/generic_server.svg;" vertex="1" parent="1">
          <mxGeometry x="54.4" y="330" width="39.2" height="70" as="geometry" />
        </mxCell>
        <mxCell id="qmVG4XL9D6MHdwjUhQzo-5" value="" style="sketch=0;outlineConnect=0;fontColor=#232F3E;gradientColor=none;fillColor=#3F8624;strokeColor=none;dashed=0;verticalLabelPosition=bottom;verticalAlign=top;align=center;html=1;fontSize=12;fontStyle=0;aspect=fixed;pointerEvents=1;shape=mxgraph.aws4.iot_analytics_data_store;" vertex="1" parent="1">
          <mxGeometry x="47" y="507" width="54" height="78" as="geometry" />
        </mxCell>
        <mxCell id="qmVG4XL9D6MHdwjUhQzo-10" style="edgeStyle=orthogonalEdgeStyle;rounded=0;orthogonalLoop=1;jettySize=auto;html=1;entryX=1;entryY=0.5;entryDx=0;entryDy=0;" edge="1" parent="1" source="qmVG4XL9D6MHdwjUhQzo-6" target="qmVG4XL9D6MHdwjUhQzo-3">
          <mxGeometry relative="1" as="geometry" />
        </mxCell>
        <mxCell id="qmVG4XL9D6MHdwjUhQzo-27" style="edgeStyle=orthogonalEdgeStyle;rounded=0;orthogonalLoop=1;jettySize=auto;html=1;entryX=0.005;entryY=0.554;entryDx=0;entryDy=0;entryPerimeter=0;" edge="1" parent="1" source="qmVG4XL9D6MHdwjUhQzo-6" target="qmVG4XL9D6MHdwjUhQzo-13">
          <mxGeometry relative="1" as="geometry" />
        </mxCell>
        <mxCell id="qmVG4XL9D6MHdwjUhQzo-34" style="edgeStyle=orthogonalEdgeStyle;rounded=0;orthogonalLoop=1;jettySize=auto;html=1;entryX=1.003;entryY=0.367;entryDx=0;entryDy=0;entryPerimeter=0;" edge="1" parent="1" source="qmVG4XL9D6MHdwjUhQzo-6" target="qmVG4XL9D6MHdwjUhQzo-33">
          <mxGeometry relative="1" as="geometry" />
        </mxCell>
        <mxCell id="qmVG4XL9D6MHdwjUhQzo-66" style="edgeStyle=orthogonalEdgeStyle;rounded=0;orthogonalLoop=1;jettySize=auto;html=1;exitX=0;exitY=0.25;exitDx=0;exitDy=0;entryX=0.5;entryY=0;entryDx=0;entryDy=0;fontSize=14;" edge="1" parent="1" source="qmVG4XL9D6MHdwjUhQzo-6" target="qmVG4XL9D6MHdwjUhQzo-64">
          <mxGeometry relative="1" as="geometry">
            <Array as="points">
              <mxPoint x="158" y="310" />
              <mxPoint x="-155" y="310" />
            </Array>
          </mxGeometry>
        </mxCell>
        <mxCell id="qmVG4XL9D6MHdwjUhQzo-68" value="login / logout" style="edgeLabel;html=1;align=center;verticalAlign=middle;resizable=0;points=[];fontSize=14;" vertex="1" connectable="0" parent="qmVG4XL9D6MHdwjUhQzo-66">
          <mxGeometry x="0.3169" y="2" relative="1" as="geometry">
            <mxPoint x="28" y="-2" as="offset" />
          </mxGeometry>
        </mxCell>
        <mxCell id="qmVG4XL9D6MHdwjUhQzo-6" value="" style="aspect=fixed;perimeter=ellipsePerimeter;html=1;align=center;shadow=0;dashed=0;spacingTop=3;image;image=img/lib/active_directory/generic_server.svg;" vertex="1" parent="1">
          <mxGeometry x="155.4" y="330" width="39.2" height="70" as="geometry" />
        </mxCell>
        <mxCell id="qmVG4XL9D6MHdwjUhQzo-26" style="edgeStyle=orthogonalEdgeStyle;rounded=0;orthogonalLoop=1;jettySize=auto;html=1;exitX=0.25;exitY=1;exitDx=0;exitDy=0;entryX=0.587;entryY=0.008;entryDx=0;entryDy=0;entryPerimeter=0;" edge="1" parent="1" source="qmVG4XL9D6MHdwjUhQzo-13" target="qmVG4XL9D6MHdwjUhQzo-19">
          <mxGeometry relative="1" as="geometry" />
        </mxCell>
        <mxCell id="qmVG4XL9D6MHdwjUhQzo-29" style="edgeStyle=orthogonalEdgeStyle;rounded=0;orthogonalLoop=1;jettySize=auto;html=1;exitX=0;exitY=1;exitDx=0;exitDy=0;entryX=1;entryY=0.25;entryDx=0;entryDy=0;" edge="1" parent="1" source="qmVG4XL9D6MHdwjUhQzo-13" target="qmVG4XL9D6MHdwjUhQzo-6">
          <mxGeometry relative="1" as="geometry" />
        </mxCell>
        <mxCell id="qmVG4XL9D6MHdwjUhQzo-13" value="" style="rounded=1;whiteSpace=wrap;html=1;" vertex="1" parent="1">
          <mxGeometry x="410" y="200" width="190" height="130" as="geometry" />
        </mxCell>
        <mxCell id="qmVG4XL9D6MHdwjUhQzo-7" value="" style="aspect=fixed;perimeter=ellipsePerimeter;html=1;align=center;shadow=0;dashed=0;spacingTop=3;image;image=img/lib/active_directory/generic_server.svg;" vertex="1" parent="1">
          <mxGeometry x="440" y="220" width="39.2" height="70" as="geometry" />
        </mxCell>
        <mxCell id="qmVG4XL9D6MHdwjUhQzo-4" value="" style="aspect=fixed;perimeter=ellipsePerimeter;html=1;align=center;shadow=0;dashed=0;spacingTop=3;image;image=img/lib/active_directory/generic_server.svg;" vertex="1" parent="1">
          <mxGeometry x="540" y="220" width="39.2" height="70" as="geometry" />
        </mxCell>
        <mxCell id="qmVG4XL9D6MHdwjUhQzo-24" style="edgeStyle=orthogonalEdgeStyle;rounded=0;orthogonalLoop=1;jettySize=auto;html=1;entryX=0.5;entryY=0;entryDx=0;entryDy=0;" edge="1" parent="1" source="qmVG4XL9D6MHdwjUhQzo-14" target="qmVG4XL9D6MHdwjUhQzo-6">
          <mxGeometry relative="1" as="geometry" />
        </mxCell>
        <mxCell id="qmVG4XL9D6MHdwjUhQzo-14" value="load balancer" style="text;html=1;align=center;verticalAlign=middle;resizable=0;points=[];autosize=1;strokeColor=none;fillColor=none;" vertex="1" parent="1">
          <mxGeometry x="150" y="260" width="90" height="20" as="geometry" />
        </mxCell>
        <mxCell id="qmVG4XL9D6MHdwjUhQzo-22" style="edgeStyle=orthogonalEdgeStyle;rounded=0;orthogonalLoop=1;jettySize=auto;html=1;" edge="1" parent="1" source="qmVG4XL9D6MHdwjUhQzo-15">
          <mxGeometry relative="1" as="geometry">
            <mxPoint x="175" y="480" as="targetPoint" />
          </mxGeometry>
        </mxCell>
        <mxCell id="qmVG4XL9D6MHdwjUhQzo-15" value="API Servers" style="text;html=1;align=center;verticalAlign=middle;resizable=0;points=[];autosize=1;strokeColor=none;fillColor=none;" vertex="1" parent="1">
          <mxGeometry x="135" y="400" width="80" height="20" as="geometry" />
        </mxCell>
        <mxCell id="qmVG4XL9D6MHdwjUhQzo-21" style="edgeStyle=orthogonalEdgeStyle;rounded=0;orthogonalLoop=1;jettySize=auto;html=1;" edge="1" parent="1" source="qmVG4XL9D6MHdwjUhQzo-16">
          <mxGeometry relative="1" as="geometry">
            <mxPoint x="74" y="480" as="targetPoint" />
          </mxGeometry>
        </mxCell>
        <mxCell id="qmVG4XL9D6MHdwjUhQzo-16" value="Notification Servers" style="text;html=1;align=center;verticalAlign=middle;resizable=0;points=[];autosize=1;strokeColor=none;fillColor=none;" vertex="1" parent="1">
          <mxGeometry x="14" y="400" width="120" height="20" as="geometry" />
        </mxCell>
        <mxCell id="qmVG4XL9D6MHdwjUhQzo-17" value="" style="sketch=0;outlineConnect=0;fontColor=#232F3E;gradientColor=none;fillColor=#3F8624;strokeColor=none;dashed=0;verticalLabelPosition=bottom;verticalAlign=top;align=center;html=1;fontSize=12;fontStyle=0;aspect=fixed;pointerEvents=1;shape=mxgraph.aws4.iot_analytics_data_store;" vertex="1" parent="1">
          <mxGeometry x="240" y="507" width="54" height="78" as="geometry" />
        </mxCell>
        <mxCell id="qmVG4XL9D6MHdwjUhQzo-18" value="" style="sketch=0;outlineConnect=0;fontColor=#232F3E;gradientColor=none;fillColor=#3F8624;strokeColor=none;dashed=0;verticalLabelPosition=bottom;verticalAlign=top;align=center;html=1;fontSize=12;fontStyle=0;aspect=fixed;pointerEvents=1;shape=mxgraph.aws4.iot_analytics_data_store;" vertex="1" parent="1">
          <mxGeometry x="420" y="507" width="54" height="78" as="geometry" />
        </mxCell>
        <mxCell id="qmVG4XL9D6MHdwjUhQzo-20" value="KV store" style="text;html=1;align=center;verticalAlign=middle;resizable=0;points=[];autosize=1;strokeColor=none;fillColor=none;" vertex="1" parent="1">
          <mxGeometry x="237" y="595" width="60" height="20" as="geometry" />
        </mxCell>
        <mxCell id="qmVG4XL9D6MHdwjUhQzo-23" value="Chat Servers" style="text;html=1;align=center;verticalAlign=middle;resizable=0;points=[];autosize=1;strokeColor=none;fillColor=none;" vertex="1" parent="1">
          <mxGeometry x="460" y="300" width="90" height="20" as="geometry" />
        </mxCell>
        <mxCell id="qmVG4XL9D6MHdwjUhQzo-32" value="login / sign up etc." style="text;html=1;align=center;verticalAlign=middle;resizable=0;points=[];autosize=1;strokeColor=none;fillColor=none;" vertex="1" parent="1">
          <mxGeometry x="84.6" y="130" width="110" height="20" as="geometry" />
        </mxCell>
        <mxCell id="qmVG4XL9D6MHdwjUhQzo-35" style="edgeStyle=orthogonalEdgeStyle;rounded=0;orthogonalLoop=1;jettySize=auto;html=1;entryX=0.5;entryY=0;entryDx=0;entryDy=0;" edge="1" parent="1" source="qmVG4XL9D6MHdwjUhQzo-33" target="qmVG4XL9D6MHdwjUhQzo-13">
          <mxGeometry relative="1" as="geometry">
            <Array as="points">
              <mxPoint x="25" y="30" />
              <mxPoint x="505" y="30" />
            </Array>
          </mxGeometry>
        </mxCell>
        <mxCell id="qmVG4XL9D6MHdwjUhQzo-33" value="Service discovery (Zookeeper)" style="rounded=1;whiteSpace=wrap;html=1;" vertex="1" parent="1">
          <mxGeometry x="-35.4" y="240" width="120" height="60" as="geometry" />
        </mxCell>
        <mxCell id="qmVG4XL9D6MHdwjUhQzo-54" style="edgeStyle=orthogonalEdgeStyle;rounded=0;orthogonalLoop=1;jettySize=auto;html=1;entryX=0.5;entryY=0;entryDx=0;entryDy=0;" edge="1" parent="1" source="qmVG4XL9D6MHdwjUhQzo-36" target="qmVG4XL9D6MHdwjUhQzo-37">
          <mxGeometry relative="1" as="geometry" />
        </mxCell>
        <mxCell id="qmVG4XL9D6MHdwjUhQzo-70" style="edgeStyle=orthogonalEdgeStyle;rounded=0;orthogonalLoop=1;jettySize=auto;html=1;entryX=0;entryY=0.5;entryDx=0;entryDy=0;fontSize=14;" edge="1" parent="1" source="qmVG4XL9D6MHdwjUhQzo-36" target="qmVG4XL9D6MHdwjUhQzo-64">
          <mxGeometry relative="1" as="geometry">
            <Array as="points">
              <mxPoint x="-330" y="750" />
              <mxPoint x="-330" y="360" />
            </Array>
          </mxGeometry>
        </mxCell>
        <mxCell id="qmVG4XL9D6MHdwjUhQzo-71" value="heartbeat every 5 sec,&lt;br&gt;if presence server does not receive any&lt;br&gt;heartbeat in a period of time then the user&#39;s&amp;nbsp;&lt;br&gt;status is updated to offline" style="edgeLabel;html=1;align=center;verticalAlign=middle;resizable=0;points=[];fontSize=14;" vertex="1" connectable="0" parent="qmVG4XL9D6MHdwjUhQzo-70">
          <mxGeometry x="0.2268" relative="1" as="geometry">
            <mxPoint as="offset" />
          </mxGeometry>
        </mxCell>
        <mxCell id="qmVG4XL9D6MHdwjUhQzo-36" value="User 1" style="shape=umlActor;verticalLabelPosition=bottom;verticalAlign=top;html=1;outlineConnect=0;" vertex="1" parent="1">
          <mxGeometry x="-90" y="720" width="30" height="60" as="geometry" />
        </mxCell>
        <mxCell id="qmVG4XL9D6MHdwjUhQzo-55" style="edgeStyle=orthogonalEdgeStyle;rounded=0;orthogonalLoop=1;jettySize=auto;html=1;" edge="1" parent="1" source="qmVG4XL9D6MHdwjUhQzo-37">
          <mxGeometry relative="1" as="geometry">
            <mxPoint x="-170" y="965" as="targetPoint" />
          </mxGeometry>
        </mxCell>
        <mxCell id="qmVG4XL9D6MHdwjUhQzo-37" value="" style="aspect=fixed;perimeter=ellipsePerimeter;html=1;align=center;shadow=0;dashed=0;spacingTop=3;image;image=img/lib/active_directory/generic_server.svg;" vertex="1" parent="1">
          <mxGeometry x="-94.6" y="930" width="39.2" height="70" as="geometry" />
        </mxCell>
        <mxCell id="qmVG4XL9D6MHdwjUhQzo-59" style="edgeStyle=orthogonalEdgeStyle;rounded=0;orthogonalLoop=1;jettySize=auto;html=1;" edge="1" parent="1" source="qmVG4XL9D6MHdwjUhQzo-38">
          <mxGeometry relative="1" as="geometry">
            <mxPoint x="299.5999999999999" y="810" as="targetPoint" />
          </mxGeometry>
        </mxCell>
        <mxCell id="qmVG4XL9D6MHdwjUhQzo-38" value="" style="aspect=fixed;perimeter=ellipsePerimeter;html=1;align=center;shadow=0;dashed=0;spacingTop=3;image;image=img/lib/active_directory/generic_server.svg;" vertex="1" parent="1">
          <mxGeometry x="280" y="930" width="39.2" height="70" as="geometry" />
        </mxCell>
        <mxCell id="qmVG4XL9D6MHdwjUhQzo-39" value="User 2" style="shape=umlActor;verticalLabelPosition=bottom;verticalAlign=top;html=1;outlineConnect=0;" vertex="1" parent="1">
          <mxGeometry x="284.6" y="720" width="30" height="60" as="geometry" />
        </mxCell>
        <mxCell id="qmVG4XL9D6MHdwjUhQzo-58" style="edgeStyle=orthogonalEdgeStyle;rounded=0;orthogonalLoop=1;jettySize=auto;html=1;entryX=0.5;entryY=1;entryDx=0;entryDy=0;" edge="1" parent="1" source="qmVG4XL9D6MHdwjUhQzo-40" target="qmVG4XL9D6MHdwjUhQzo-47">
          <mxGeometry relative="1" as="geometry" />
        </mxCell>
        <mxCell id="qmVG4XL9D6MHdwjUhQzo-60" style="edgeStyle=orthogonalEdgeStyle;rounded=0;orthogonalLoop=1;jettySize=auto;html=1;entryX=0.5;entryY=0;entryDx=0;entryDy=0;entryPerimeter=0;" edge="1" parent="1" source="qmVG4XL9D6MHdwjUhQzo-40" target="qmVG4XL9D6MHdwjUhQzo-51">
          <mxGeometry relative="1" as="geometry" />
        </mxCell>
        <mxCell id="qmVG4XL9D6MHdwjUhQzo-61" value="User 2 offline" style="edgeLabel;html=1;align=center;verticalAlign=middle;resizable=0;points=[];" vertex="1" connectable="0" parent="qmVG4XL9D6MHdwjUhQzo-60">
          <mxGeometry x="0.5214" y="-2" relative="1" as="geometry">
            <mxPoint as="offset" />
          </mxGeometry>
        </mxCell>
        <mxCell id="qmVG4XL9D6MHdwjUhQzo-40" value="" style="verticalLabelPosition=bottom;html=1;verticalAlign=top;align=center;strokeColor=none;fillColor=#00BEF2;shape=mxgraph.azure.queue_generic;pointerEvents=1;" vertex="1" parent="1">
          <mxGeometry x="50" y="1030" width="130" height="40" as="geometry" />
        </mxCell>
        <mxCell id="qmVG4XL9D6MHdwjUhQzo-44" value="" style="verticalLabelPosition=bottom;html=1;verticalAlign=top;align=center;strokeColor=none;fillColor=#00BEF2;shape=mxgraph.azure.server;" vertex="1" parent="1">
          <mxGeometry x="-230" y="958" width="50" height="15" as="geometry" />
        </mxCell>
        <mxCell id="qmVG4XL9D6MHdwjUhQzo-45" value="ID generator" style="text;html=1;align=center;verticalAlign=middle;resizable=0;points=[];autosize=1;strokeColor=none;fillColor=none;" vertex="1" parent="1">
          <mxGeometry x="-245" y="980" width="80" height="20" as="geometry" />
        </mxCell>
        <mxCell id="qmVG4XL9D6MHdwjUhQzo-56" style="edgeStyle=orthogonalEdgeStyle;rounded=0;orthogonalLoop=1;jettySize=auto;html=1;entryX=0;entryY=0.5;entryDx=0;entryDy=0;entryPerimeter=0;" edge="1" parent="1" source="qmVG4XL9D6MHdwjUhQzo-46" target="qmVG4XL9D6MHdwjUhQzo-40">
          <mxGeometry relative="1" as="geometry">
            <Array as="points">
              <mxPoint x="-75" y="1050" />
            </Array>
          </mxGeometry>
        </mxCell>
        <mxCell id="qmVG4XL9D6MHdwjUhQzo-46" value="Chat Server 1" style="text;html=1;align=center;verticalAlign=middle;resizable=0;points=[];autosize=1;strokeColor=none;fillColor=none;" vertex="1" parent="1">
          <mxGeometry x="-120" y="1000" width="90" height="20" as="geometry" />
        </mxCell>
        <mxCell id="qmVG4XL9D6MHdwjUhQzo-47" value="&lt;span style=&quot;color: rgb(0 , 0 , 0) ; font-family: &amp;#34;helvetica&amp;#34; ; font-size: 12px ; font-style: normal ; font-weight: 400 ; letter-spacing: normal ; text-align: center ; text-indent: 0px ; text-transform: none ; word-spacing: 0px ; background-color: rgb(248 , 249 , 250) ; display: inline ; float: none&quot;&gt;Chat Server 2&lt;/span&gt;" style="text;whiteSpace=wrap;html=1;" vertex="1" parent="1">
          <mxGeometry x="260" y="1000" width="80" height="30" as="geometry" />
        </mxCell>
        <mxCell id="qmVG4XL9D6MHdwjUhQzo-57" style="edgeStyle=orthogonalEdgeStyle;rounded=0;orthogonalLoop=1;jettySize=auto;html=1;" edge="1" parent="1" source="qmVG4XL9D6MHdwjUhQzo-48" target="qmVG4XL9D6MHdwjUhQzo-49">
          <mxGeometry relative="1" as="geometry" />
        </mxCell>
        <mxCell id="qmVG4XL9D6MHdwjUhQzo-48" value="Message Queue" style="text;html=1;align=center;verticalAlign=middle;resizable=0;points=[];autosize=1;strokeColor=none;fillColor=none;" vertex="1" parent="1">
          <mxGeometry x="65" y="1070" width="100" height="20" as="geometry" />
        </mxCell>
        <mxCell id="qmVG4XL9D6MHdwjUhQzo-49" value="" style="sketch=0;outlineConnect=0;fontColor=#232F3E;gradientColor=none;fillColor=#3F8624;strokeColor=none;dashed=0;verticalLabelPosition=bottom;verticalAlign=top;align=center;html=1;fontSize=12;fontStyle=0;aspect=fixed;pointerEvents=1;shape=mxgraph.aws4.iot_analytics_data_store;" vertex="1" parent="1">
          <mxGeometry x="88" y="1170" width="54" height="78" as="geometry" />
        </mxCell>
        <mxCell id="qmVG4XL9D6MHdwjUhQzo-50" value="KV store" style="text;html=1;align=center;verticalAlign=middle;resizable=0;points=[];autosize=1;strokeColor=none;fillColor=none;" vertex="1" parent="1">
          <mxGeometry x="84.6" y="1248" width="60" height="20" as="geometry" />
        </mxCell>
        <mxCell id="qmVG4XL9D6MHdwjUhQzo-51" value="" style="verticalLabelPosition=bottom;html=1;verticalAlign=top;align=center;strokeColor=none;fillColor=#00BEF2;shape=mxgraph.azure.server;" vertex="1" parent="1">
          <mxGeometry x="280" y="1190" width="80" height="40" as="geometry" />
        </mxCell>
        <mxCell id="qmVG4XL9D6MHdwjUhQzo-53" value="Push Notification Server" style="text;html=1;align=center;verticalAlign=middle;resizable=0;points=[];autosize=1;strokeColor=none;fillColor=none;" vertex="1" parent="1">
          <mxGeometry x="252" y="1240" width="140" height="20" as="geometry" />
        </mxCell>
        <mxCell id="qmVG4XL9D6MHdwjUhQzo-62" value="User 1 sends message to User 2" style="text;html=1;align=center;verticalAlign=middle;resizable=0;points=[];autosize=1;strokeColor=none;fillColor=none;fontSize=14;fontStyle=1" vertex="1" parent="1">
          <mxGeometry x="-30" y="680" width="230" height="20" as="geometry" />
        </mxCell>
        <mxCell id="qmVG4XL9D6MHdwjUhQzo-63" value="General Design" style="text;html=1;align=center;verticalAlign=middle;resizable=0;points=[];autosize=1;strokeColor=none;fillColor=none;fontSize=14;fontStyle=1" vertex="1" parent="1">
          <mxGeometry x="170" width="120" height="20" as="geometry" />
        </mxCell>
        <mxCell id="qmVG4XL9D6MHdwjUhQzo-65" style="edgeStyle=orthogonalEdgeStyle;rounded=0;orthogonalLoop=1;jettySize=auto;html=1;entryX=0;entryY=0.5;entryDx=0;entryDy=0;fontSize=14;" edge="1" parent="1" source="qmVG4XL9D6MHdwjUhQzo-64" target="qmVG4XL9D6MHdwjUhQzo-19">
          <mxGeometry relative="1" as="geometry">
            <Array as="points">
              <mxPoint x="-155" y="550" />
            </Array>
          </mxGeometry>
        </mxCell>
        <mxCell id="qmVG4XL9D6MHdwjUhQzo-67" value="User A: {status: online, last_active_at: xxx}" style="edgeLabel;html=1;align=center;verticalAlign=middle;resizable=0;points=[];fontSize=14;" vertex="1" connectable="0" parent="qmVG4XL9D6MHdwjUhQzo-65">
          <mxGeometry x="-0.7032" y="-2" relative="1" as="geometry">
            <mxPoint as="offset" />
          </mxGeometry>
        </mxCell>
        <mxCell id="qmVG4XL9D6MHdwjUhQzo-69" value="User A: {statis: offline}" style="edgeLabel;html=1;align=center;verticalAlign=middle;resizable=0;points=[];fontSize=14;" vertex="1" connectable="0" parent="qmVG4XL9D6MHdwjUhQzo-65">
          <mxGeometry x="-0.492" y="-4" relative="1" as="geometry">
            <mxPoint as="offset" />
          </mxGeometry>
        </mxCell>
        <mxCell id="qmVG4XL9D6MHdwjUhQzo-76" style="edgeStyle=orthogonalEdgeStyle;rounded=0;orthogonalLoop=1;jettySize=auto;html=1;exitX=0;exitY=0;exitDx=0;exitDy=0;entryX=1;entryY=0.51;entryDx=0;entryDy=0;entryPerimeter=0;fontSize=14;" edge="1" parent="1" source="qmVG4XL9D6MHdwjUhQzo-64" target="qmVG4XL9D6MHdwjUhQzo-75">
          <mxGeometry relative="1" as="geometry" />
        </mxCell>
        <mxCell id="qmVG4XL9D6MHdwjUhQzo-89" value="notify" style="edgeLabel;html=1;align=center;verticalAlign=middle;resizable=0;points=[];fontSize=14;" vertex="1" connectable="0" parent="qmVG4XL9D6MHdwjUhQzo-76">
          <mxGeometry x="-0.019" relative="1" as="geometry">
            <mxPoint as="offset" />
          </mxGeometry>
        </mxCell>
        <mxCell id="qmVG4XL9D6MHdwjUhQzo-78" style="edgeStyle=orthogonalEdgeStyle;rounded=0;orthogonalLoop=1;jettySize=auto;html=1;exitX=0.25;exitY=0;exitDx=0;exitDy=0;entryX=1;entryY=0.51;entryDx=0;entryDy=0;entryPerimeter=0;fontSize=14;" edge="1" parent="1" source="qmVG4XL9D6MHdwjUhQzo-64" target="qmVG4XL9D6MHdwjUhQzo-72">
          <mxGeometry relative="1" as="geometry" />
        </mxCell>
        <mxCell id="qmVG4XL9D6MHdwjUhQzo-88" value="notify" style="edgeLabel;html=1;align=center;verticalAlign=middle;resizable=0;points=[];fontSize=14;" vertex="1" connectable="0" parent="qmVG4XL9D6MHdwjUhQzo-78">
          <mxGeometry x="0.3989" y="-1" relative="1" as="geometry">
            <mxPoint as="offset" />
          </mxGeometry>
        </mxCell>
        <mxCell id="qmVG4XL9D6MHdwjUhQzo-64" value="Presence Server" style="rounded=1;whiteSpace=wrap;html=1;fontSize=14;" vertex="1" parent="1">
          <mxGeometry x="-215" y="330" width="120" height="60" as="geometry" />
        </mxCell>
        <mxCell id="qmVG4XL9D6MHdwjUhQzo-84" style="edgeStyle=orthogonalEdgeStyle;rounded=0;orthogonalLoop=1;jettySize=auto;html=1;fontSize=14;" edge="1" parent="1" source="qmVG4XL9D6MHdwjUhQzo-72">
          <mxGeometry relative="1" as="geometry">
            <mxPoint x="-460" y="225" as="targetPoint" />
          </mxGeometry>
        </mxCell>
        <mxCell id="qmVG4XL9D6MHdwjUhQzo-90" value="subscribe" style="edgeLabel;html=1;align=center;verticalAlign=middle;resizable=0;points=[];fontSize=14;" vertex="1" connectable="0" parent="qmVG4XL9D6MHdwjUhQzo-84">
          <mxGeometry x="0.2909" y="-2" relative="1" as="geometry">
            <mxPoint x="11" y="2" as="offset" />
          </mxGeometry>
        </mxCell>
        <mxCell id="qmVG4XL9D6MHdwjUhQzo-72" value="" style="verticalLabelPosition=bottom;html=1;verticalAlign=top;align=center;strokeColor=none;fillColor=#00BEF2;shape=mxgraph.azure.queue_generic;pointerEvents=1;" vertex="1" parent="1">
          <mxGeometry x="-350" y="210" width="100" height="30" as="geometry" />
        </mxCell>
        <mxCell id="qmVG4XL9D6MHdwjUhQzo-73" value="user2 - 1" style="text;html=1;align=center;verticalAlign=middle;resizable=0;points=[];autosize=1;strokeColor=none;fillColor=none;fontSize=14;" vertex="1" parent="1">
          <mxGeometry x="-340" y="240" width="70" height="20" as="geometry" />
        </mxCell>
        <mxCell id="qmVG4XL9D6MHdwjUhQzo-74" value="user 3 - 1" style="text;html=1;align=center;verticalAlign=middle;resizable=0;points=[];autosize=1;strokeColor=none;fillColor=none;fontSize=14;" vertex="1" parent="1">
          <mxGeometry x="-345" y="290" width="70" height="20" as="geometry" />
        </mxCell>
        <mxCell id="qmVG4XL9D6MHdwjUhQzo-85" value="subscribe" style="edgeStyle=orthogonalEdgeStyle;rounded=0;orthogonalLoop=1;jettySize=auto;html=1;fontSize=14;" edge="1" parent="1" source="qmVG4XL9D6MHdwjUhQzo-75">
          <mxGeometry relative="1" as="geometry">
            <mxPoint x="-460" y="275" as="targetPoint" />
          </mxGeometry>
        </mxCell>
        <mxCell id="qmVG4XL9D6MHdwjUhQzo-75" value="" style="verticalLabelPosition=bottom;html=1;verticalAlign=top;align=center;strokeColor=none;fillColor=#00BEF2;shape=mxgraph.azure.queue_generic;pointerEvents=1;" vertex="1" parent="1">
          <mxGeometry x="-350" y="260" width="100" height="30" as="geometry" />
        </mxCell>
        <mxCell id="qmVG4XL9D6MHdwjUhQzo-79" value="User 3" style="shape=umlActor;verticalLabelPosition=bottom;verticalAlign=top;html=1;outlineConnect=0;" vertex="1" parent="1">
          <mxGeometry x="-490" y="190" width="20" height="50" as="geometry" />
        </mxCell>
        <mxCell id="qmVG4XL9D6MHdwjUhQzo-81" value="User 3" style="shape=umlActor;verticalLabelPosition=bottom;verticalAlign=top;html=1;outlineConnect=0;" vertex="1" parent="1">
          <mxGeometry x="-490" y="270" width="20" height="40" as="geometry" />
        </mxCell>
        <mxCell id="qmVG4XL9D6MHdwjUhQzo-91" value="when user 1 goes offline,&lt;br&gt;presence server notifies to&lt;br&gt;user 2 and 3 as they subscribed&lt;br&gt;to the presence update of User 1" style="text;html=1;align=center;verticalAlign=middle;resizable=0;points=[];autosize=1;strokeColor=none;fillColor=none;fontSize=14;" vertex="1" parent="1">
          <mxGeometry x="-415" y="130" width="220" height="70" as="geometry" />
        </mxCell>
      </root>
    </mxGraphModel>
  </diagram>
</mxfile>
